<?xml version="1.0" encoding="UTF-8" standalone="no"?>
<!-- Created with Inkscape (http://www.inkscape.org/) -->
<svg
   xmlns="http://www.w3.org/2000/svg"
   viewBox="0 0 100 100"
   >

    <filter id="f1" x="0" y="0">
      <feGaussianBlur in="SourceGraphic" stdDeviation="0.2" />
    </filter>

  <path d="
    M 0 50
    A 50 50 0 0 0 35 35
    L 33.6 33.6
    A 48 48 0 0 1  0 48
    
    Z
  "
    fill="rgba(0,0,0,0.1)"
    stroke="rgba(0,0,0,0.1)"

    transform="translate(50,126),rotate(-157.5),scale(2.5)"
    filter="url(#f1)"
  />

  <path d="
    M 0 50
    A 50 50 0 0 0 35 35
    L 33.6 33.6
    A 48 48 0 0 1  0 48
    
    Z
  "
    fill="url(#gra)"
    stroke="url(#gra)"

    transform="translate(50,128),rotate(-157.5),scale(2.5)"
    filter="url(#f1)"
  />

  <path d="
    M 0 50
    A 50 50 0 0 0 35 35
    L 33.6 33.6
    A 48 48 0 0 1  0 48
    
    Z
  "
    fill="rgb(255, 248, 158)"
    stroke="rgb(255, 248, 158)"

    transform="translate(50,127),rotate(-157.5),scale(2.5)"
  />

  <radialGradient id="gra" >
    <stop offset="0.0" stop-color="rgba(0,0,0,0.3)"/>
    <stop offset="1" stop-color="rgba(0,0,0,0)"/>
  </radialGradient>

  

  
</svg>