<?xml version="1.0" encoding="UTF-8" standalone="no"?>
<!-- Created with Inkscape (http://www.inkscape.org/) -->

<svg
   xmlns:dc="http://purl.org/dc/elements/1.1/"
   xmlns:cc="http://creativecommons.org/ns#"
   xmlns:rdf="http://www.w3.org/1999/02/22-rdf-syntax-ns#"
   xmlns:svg="http://www.w3.org/2000/svg"
   xmlns="http://www.w3.org/2000/svg"
   xmlns:xlink="http://www.w3.org/1999/xlink"
   xmlns:sodipodi="http://sodipodi.sourceforge.net/DTD/sodipodi-0.dtd"
   xmlns:inkscape="http://www.inkscape.org/namespaces/inkscape"
   width="140"
   height="140"
   viewBox="0 0 37.041667 37.041668"
   version="1.1"
   id="svg8"
   inkscape:version="0.92.1 r15371"
   sodipodi:docname="arco.svg"
   style="enable-background:new">
  <defs
     id="defs2">
    <linearGradient
       inkscape:collect="always"
       id="linearGradient5027">
      <stop
         style="stop-color:#000000;stop-opacity:1;"
         offset="0"
         id="stop5023" />
      <stop
         id="stop5031"
         offset="0.80000001"
         style="stop-color:#000000;stop-opacity:0.49803922;" />
      <stop
         style="stop-color:#000000;stop-opacity:0;"
         offset="1"
         id="stop5025" />
    </linearGradient>
    <filter
       inkscape:label="Blur Double"
       inkscape:menu="Blurs"
       inkscape:menu-tooltip="Overlays two copies with different blur amounts and modifiable blend and composite"
       style="color-interpolation-filters:sRGB"
       id="filter4726">
      <feGaussianBlur
         stdDeviation="5"
         result="fbSourceGraphic"
         id="feGaussianBlur4718" />
      <feGaussianBlur
         stdDeviation="0.01"
         in="SourceGraphic"
         result="result1"
         id="feGaussianBlur4720" />
      <feComposite
         in2="result1"
         operator="arithmetic"
         in="fbSourceGraphic"
         k2="0.5"
         k3="0.5"
         result="result2"
         id="feComposite4722"
         k1="0"
         k4="0" />
      <feBlend
         in2="fbSourceGraphic"
         mode="normal"
         result="result3"
         id="feBlend4724" />
    </filter>
    <radialGradient
       inkscape:collect="always"
       xlink:href="#linearGradient5027"
       id="radialGradient5029"
       cx="15.875"
       cy="269.91473"
       fx="15.875"
       fy="269.91473"
       r="13.229166"
       gradientTransform="matrix(1,0,0,0.1673893,2.6457235,220.50053)"
       gradientUnits="userSpaceOnUse" />
    <filter
       inkscape:collect="always"
       style="color-interpolation-filters:sRGB"
       id="filter5369"
       x="-0.023814742"
       width="1.0476295"
       y="-0.14227159"
       height="1.2845432">
      <feGaussianBlur
         inkscape:collect="always"
         stdDeviation="0.26254098"
         id="feGaussianBlur5371" />
    </filter>
    <filter
       inkscape:collect="always"
       style="color-interpolation-filters:sRGB"
       id="filter5385"
       x="-0.13868585"
       width="1.2773716"
       y="-0.82852274"
       height="2.6570456">
      <feGaussianBlur
         inkscape:collect="always"
         stdDeviation="1.5289151"
         id="feGaussianBlur5387" />
      <feBlend
         inkscape:collect="always"
         mode="overlay"
         in2="BackgroundImage"
         id="feBlend5389" />
    </filter>
    <filter
       inkscape:collect="always"
       style="color-interpolation-filters:sRGB"
       id="filter5512"
       x="-0.014761066"
       width="1.0295221"
       y="-0.064153776"
       height="1.1283076">
      <feGaussianBlur
         inkscape:collect="always"
         stdDeviation="0.16435807"
         id="feGaussianBlur5514" />
    </filter>
  </defs>
  <sodipodi:namedview
     id="base"
     pagecolor="#ffffff"
     bordercolor="#666666"
     borderopacity="1.0"
     inkscape:pageopacity="0.0"
     inkscape:pageshadow="2"
     inkscape:zoom="5.6"
     inkscape:cx="67.203601"
     inkscape:cy="102.4009"
     inkscape:document-units="mm"
     inkscape:current-layer="layer2"
     showgrid="false"
     units="px"
     inkscape:window-width="716"
     inkscape:window-height="696"
     inkscape:window-x="641"
     inkscape:window-y="0"
     inkscape:window-maximized="0"
     showguides="false" />
  <metadata
     id="metadata5">
    <rdf:RDF>
      <cc:Work
         rdf:about="">
        <dc:format>image/svg+xml</dc:format>
        <dc:type
           rdf:resource="http://purl.org/dc/dcmitype/StillImage" />
        <dc:title></dc:title>
      </cc:Work>
    </rdf:RDF>
  </metadata>
  <g
     inkscape:groupmode="layer"
     id="layer2"
     inkscape:label="Layer 2"
     style="display:none"
     transform="translate(0,5.2916667)">
    <path
       inkscape:connector-curvature="0"
       style="opacity:1;fill:#000000;fill-opacity:1;stroke:none;stroke-width:5.396873;stroke-miterlimit:4;stroke-dasharray:none;stroke-opacity:1;filter:url(#filter5385)"
       d="M 18.277845,-0.45878054 A 43.993808,43.993808 0 0 0 5.2915568,1.6025895 l 0.7513755,2.36627 a 41.511241,41.511241 0 0 1 24.9648857,-0.0496 41.511241,41.511241 0 0 1 5.29e-4,0 l 0.741543,-2.36937 A 43.993808,43.993808 0 0 0 18.277845,-0.45877054 Z"
       id="path4489-0-9" />
    <path
       inkscape:connector-curvature="0"
       style="fill:#e2db7a;fill-opacity:1;stroke:none;stroke-width:5.396873;stroke-miterlimit:4;stroke-dasharray:none;stroke-opacity:1"
       d="M 18.277845,-0.45878054 A 43.993808,43.993808 0 0 0 5.2915568,1.6025895 l 0.7513754,2.36627 a 41.511241,41.511241 0 0 1 24.9648858,-0.0496 41.511241,41.511241 0 0 1 5.29e-4,0 l 0.741544,-2.36937 A 43.993808,43.993808 0 0 0 18.277845,-0.45877054 Z"
       id="path4489-0" />
  </g>
  <g
     inkscape:label="Layer 1"
     inkscape:groupmode="layer"
     id="layer1"
     transform="translate(0,-259.95831)"
     style="display:inline"
     sodipodi:insensitive="true">
    <path
       style="display:inline;opacity:0.16499999;fill:#000000;fill-opacity:1;stroke:none;stroke-width:5.48116732;stroke-miterlimit:4;stroke-dasharray:none;stroke-opacity:1;filter:url(#filter5512)"
       d="m 18.753314,263.07039 a 44.402429,44.961227 0 0 0 -0.482448,9.8e-4 44.402429,44.961227 0 0 0 -13.1069073,2.1067 l -0.00469,1.62241 0.7583542,2.4183 0.00469,-1.62241 a 41.896803,42.424069 0 0 1 25.1967631,-0.0507 l 0.0048,1.62241 0.758353,-2.4183 -0.01407,-1.62558 a 44.402429,44.961227 0 0 0 -13.114736,-2.05383 z"
       id="path4489-4"
       inkscape:connector-curvature="0" />
    <path
       inkscape:connector-curvature="0"
       style="opacity:0.39899998;fill:url(#radialGradient5029);fill-opacity:1;stroke:none;stroke-width:5.396873;stroke-miterlimit:4;stroke-dasharray:none;stroke-opacity:1;filter:url(#filter5369)"
       d="m 18.277845,263.46815 a 43.993808,43.993808 0 0 0 -12.9862882,2.06137 l 0.7513754,2.36627 a 41.511241,41.511241 0 0 1 24.9648858,-0.0496 41.511241,41.511241 0 0 1 5.29e-4,0 l 0.741543,-2.36937 a 43.993808,43.993808 0 0 0 -13.472045,-2.00866 z"
       id="path4489-0-0" />
    <path
       style="fill:#f5f89e;fill-opacity:1;stroke:none;stroke-width:5.396873;stroke-miterlimit:4;stroke-dasharray:none;stroke-opacity:1"
       d="m 18.760549,263.20266 a 43.993808,43.993808 0 0 0 -0.478007,0.001 43.993808,43.993808 0 0 0 -12.9862879,2.06137 l -0.00465,1.5875 0.7513753,2.36627 0.00465,-1.5875 a 41.511241,41.511241 0 0 1 24.9648846,-0.0496 l 0.0047,1.5875 0.751374,-2.36627 -0.01395,-1.5906 a 43.993808,43.993808 0 0 0 -12.994039,-2.00969 z"
       id="path4489"
       inkscape:connector-curvature="0" />
  </g>
</svg>
